<svg xmlns="http://www.w3.org/2000/svg" width="95.6" height="503.67" viewBox="0 0 95.6 503.67"><path d="M-227.76,1.3q-10.01,0-15.275-4.55T-248.3-16.38a32.4,32.4,0,0,1,.78-6.76l10.53-49.14q2.08-9.75,7.8-14.885t14.56-5.135q9.88,0,15.08,4.55t5.2,13a31.7,31.7,0,0,1-.78,6.89l-1.56,7.54h-13.78l2.08-9.88a12.326,12.326,0,0,0,.39-2.99q0-6.11-6.89-6.11-5.85,0-7.67,7.67L-233.48-20.8a11.869,11.869,0,0,0-.39,2.86q0,6.24,6.89,6.24,6.5,0,7.93-7.41l2.86-14.17h13.65l-2.99,14.56Q-209.56,1.3-227.76,1.3ZM-204.1,0l34.19-91h19.76L-154.7,0h-14.56l1.3-17.81h-16.12L-190.32,0Zm40.17-74.49-15.73,44.33h12.48ZM-131.95,0h-14.69l19.37-91h20.93q8.58,0,13.13,4.225t4.55,11.895a30.614,30.614,0,0,1-.78,6.63l-1.95,9.23q-2.34,11.31-8.45,16.64t-17.03,5.33h-7.28Zm16.51-78-5.85,27.95h5.85q7.8,0,9.49-9.1l2.21-10.66a17.141,17.141,0,0,0,.39-3.25q0-4.94-5.2-4.94ZM-80.21,0H-94.9l19.37-91H-54.6q8.58,0,13.13,4.225t4.55,11.895a30.614,30.614,0,0,1-.78,6.63l-1.95,9.23q-2.34,11.31-8.45,16.64t-17.03,5.33h-7.28ZM-63.7-78l-5.85,27.95h5.85q7.8,0,9.49-9.1L-52-69.81a17.141,17.141,0,0,0,.39-3.25q0-4.94-5.2-4.94ZM-19.24,1.3q-9.75,0-15.21-4.68t-5.46-13.26a33.488,33.488,0,0,1,.78-7.02L-24.7-91h14.56L-25.09-21.06a15.246,15.246,0,0,0-.39,3.12q0,6.24,7.15,6.24,6.11,0,7.67-7.93L4.55-91H18.59L3.25-19.11Q-1.04,1.3-19.24,1.3Zm52.91,0Q23.66,1.3,18.4-3.25T13.13-16.38a32.4,32.4,0,0,1,.78-6.76L24.44-72.28q2.08-9.75,7.8-14.885T46.8-92.3q9.88,0,15.08,4.55t5.2,13a31.7,31.7,0,0,1-.78,6.89l-1.56,7.54H50.96l2.08-9.88a12.325,12.325,0,0,0,.39-2.99q0-6.11-6.89-6.11-5.85,0-7.67,7.67L27.95-20.8a11.868,11.868,0,0,0-.39,2.86q0,6.24,6.89,6.24,6.5,0,7.93-7.41l2.86-14.17H58.89L55.9-18.72Q51.87,1.3,33.67,1.3Zm51.09,0q-10.01,0-15.275-4.55T64.22-16.38A32.4,32.4,0,0,1,65-23.14L75.53-72.28q2.08-9.75,7.8-14.885T97.89-92.3q9.88,0,15.08,4.55t5.2,13a31.7,31.7,0,0,1-.78,6.89l-1.56,7.54H102.05l2.08-9.88a12.326,12.326,0,0,0,.39-2.99q0-6.11-6.89-6.11-5.85,0-7.67,7.67L79.04-20.8a11.868,11.868,0,0,0-.39,2.86q0,6.24,6.89,6.24,6.5,0,7.93-7.41l2.86-14.17h13.65l-2.99,14.56Q102.96,1.3,84.76,1.3ZM126.88,0H112.32l19.37-91h14.56Zm24.96,0h-13l19.37-91H175.5l2.86,54.47L190.06-91h13L183.69,0H169.65l-3.64-66.43Zm67.6,1.3q-9.88,0-15.47-4.745T198.38-17.03a30.614,30.614,0,0,1,.78-6.63l10.27-48.1q2.08-10.01,8-15.275T232.31-92.3q9.88,0,15.47,4.745t5.59,13.585a31.148,31.148,0,0,1-.78,6.76l-10.27,48.1Q237.9,1.3,219.44,1.3Zm.78-13q5.85,0,7.67-8.06l10.53-49.79a14.448,14.448,0,0,0,.39-3.25q0-6.5-7.15-6.5-5.98,0-7.8,8.19L213.33-21.32a15.246,15.246,0,0,0-.39,3.12Q212.94-11.7,220.22-11.7Z" transform="translate(93.3 254.37) rotate(-90)" fill="#fff" stroke="#121211" stroke-width="2" opacity="0.1"/></svg>