<svg xmlns="http://www.w3.org/2000/svg" width="95.6" height="331.94" viewBox="0 0 95.6 331.94"><path d="M-141.18,1.3q-10.01,0-15.275-4.55t-5.265-13.13a32.4,32.4,0,0,1,.78-6.76l10.53-49.14q2.08-9.75,7.8-14.885t14.56-5.135q9.88,0,15.08,4.55t5.2,13a31.7,31.7,0,0,1-.78,6.89l-1.56,7.54h-13.78l2.08-9.88a12.326,12.326,0,0,0,.39-2.99q0-6.11-6.89-6.11-5.85,0-7.67,7.67L-146.9-20.8a11.869,11.869,0,0,0-.39,2.86q0,6.24,6.89,6.24,6.5,0,7.93-7.41l2.86-14.17h13.65l-2.99,14.56Q-122.98,1.3-141.18,1.3ZM-75.79,0h-37.83l19.37-91h14.56L-96.33-13h23.27Zm4.81,0,34.19-91h19.76L-21.58,0H-36.14l1.3-17.81H-50.96L-57.2,0Zm40.17-74.49L-46.54-30.16h12.48ZM7.02,1.3q-19.63,0-19.63-16.9a34.272,34.272,0,0,1,.91-8.06l.65-3.12H2.6L1.56-21.19a18.075,18.075,0,0,0-.39,3.51q0,5.98,6.76,5.98,8.84,0,8.84-12.74,0-8.19-7.93-17.29Q-1.95-53.95-1.95-66.17q0-11.57,6.37-18.72,6.37-7.41,17.42-7.41,19.5,0,19.5,16.77a44.441,44.441,0,0,1-1.04,8.19l-.39,1.69H26.26l.78-3.9a22.766,22.766,0,0,0,.39-3.9q0-5.85-6.5-5.85a7.073,7.073,0,0,0-6.305,3.25,15.346,15.346,0,0,0-2.145,8.58q0,7.8,7.93,16.9Q31.2-37.83,31.2-25.61q0,11.83-6.5,19.5Q18.2,1.3,7.02,1.3Zm49.4,0q-19.63,0-19.63-16.9a34.272,34.272,0,0,1,.91-8.06l.65-3.12H52l-1.04,5.59a18.076,18.076,0,0,0-.39,3.51q0,5.98,6.76,5.98,8.84,0,8.84-12.74,0-8.19-7.93-17.29Q47.45-53.95,47.45-66.17q0-11.57,6.37-18.72,6.37-7.41,17.42-7.41,19.5,0,19.5,16.77a44.442,44.442,0,0,1-1.04,8.19l-.39,1.69H75.66l.78-3.9a22.765,22.765,0,0,0,.39-3.9q0-5.85-6.5-5.85a7.073,7.073,0,0,0-6.305,3.25,15.346,15.346,0,0,0-2.145,8.58q0,7.8,7.93,16.9Q80.6-37.83,80.6-25.61q0,11.83-6.5,19.5Q67.6,1.3,56.42,1.3ZM99.58,0H85.02l19.37-91h14.56Zm35.23,1.3q-10.01,0-15.275-4.55T114.27-16.38a32.4,32.4,0,0,1,.78-6.76l10.53-49.14q2.08-9.75,7.8-14.885T147.94-92.3q9.88,0,15.08,4.55t5.2,13a31.7,31.7,0,0,1-.78,6.89l-1.56,7.54H152.1l2.08-9.88a12.326,12.326,0,0,0,.39-2.99q0-6.11-6.89-6.11-5.85,0-7.67,7.67L129.09-20.8a11.869,11.869,0,0,0-.39,2.86q0,6.24,6.89,6.24,6.5,0,7.93-7.41l2.86-14.17h13.65l-2.99,14.56Q153.01,1.3,134.81,1.3Z" transform="translate(93.3 169.22) rotate(-90)" fill="none" stroke="#121211" stroke-width="2" opacity="0.098"/></svg>