<svg xmlns="http://www.w3.org/2000/svg" width="95.6" height="410.565" viewBox="0 0 95.6 410.565"><path d="M-163.995,0h-39l19.37-91h39l-2.86,13h-24.31l-5.07,24.05h19.24l-2.73,13h-19.24L-185.575-13h24.31Zm30.16,1.3q-19.63,0-19.63-16.9a34.272,34.272,0,0,1,.91-8.06l.65-3.12h13.65l-1.04,5.59a18.076,18.076,0,0,0-.39,3.51q0,5.98,6.76,5.98,8.84,0,8.84-12.74,0-8.19-7.93-17.29Q-142.8-53.95-142.8-66.17q0-11.57,6.37-18.72,6.37-7.41,17.42-7.41,19.5,0,19.5,16.77a44.442,44.442,0,0,1-1.04,8.19l-.39,1.69H-114.6l.78-3.9a22.765,22.765,0,0,0,.39-3.9q0-5.85-6.5-5.85a7.073,7.073,0,0,0-6.305,3.25,15.346,15.346,0,0,0-2.145,8.58q0,7.8,7.93,16.9,10.79,12.74,10.79,24.96,0,11.83-6.5,19.5Q-122.655,1.3-133.835,1.3ZM-90.545,0h-14.69l19.37-91h20.93q8.58,0,13.13,4.225t4.55,11.895a30.614,30.614,0,0,1-.78,6.63l-1.95,9.23q-2.34,11.31-8.45,16.64t-17.03,5.33h-7.28Zm16.51-78-5.85,27.95h5.85q7.8,0,9.49-9.1l2.21-10.66a17.141,17.141,0,0,0,.39-3.25q0-4.94-5.2-4.94Zm35.1,78h-14.56l19.37-91h20.93q8.58,0,13.065,3.965T4.355-75.4a36.152,36.152,0,0,1-.78,7.02l-.91,4.42Q.975-55.64-2.21-51.285A15.1,15.1,0,0,1-10.855-45.5v.13q6.63,2.21,6.63,11.31a29.962,29.962,0,0,1-.91,7.54l-3.38,15.99a49.46,49.46,0,0,0-1.3,8.19q0,.26.26,2.34h-14.17q-.26-3.12-.26-3.38a43.24,43.24,0,0,1,1.17-8.32l3.51-16.64a25.515,25.515,0,0,0,.78-5.46q0-2.99-1.5-4.095t-5.4-1.1h-5.2Zm16.64-78-5.59,26h4.29q8.84,0,11.18-10.14l1.56-7.02a16.09,16.09,0,0,0,.52-4.16q0-4.68-5.46-4.68ZM39.455,0h-39l19.37-91h39l-2.86,13H31.655l-5.07,24.05h19.24l-2.73,13H23.855L17.875-13h24.31Zm30.16,1.3q-19.63,0-19.63-16.9a34.272,34.272,0,0,1,.91-8.06l.65-3.12h13.65l-1.04,5.59a18.076,18.076,0,0,0-.39,3.51q0,5.98,6.76,5.98,8.84,0,8.84-12.74,0-8.19-7.93-17.29-10.79-12.22-10.79-24.44,0-11.57,6.37-18.72,6.37-7.41,17.42-7.41,19.5,0,19.5,16.77a44.442,44.442,0,0,1-1.04,8.19l-.39,1.69H88.855l.78-3.9a22.765,22.765,0,0,0,.39-3.9q0-5.85-6.5-5.85a7.073,7.073,0,0,0-6.305,3.25,15.346,15.346,0,0,0-2.145,8.58q0,7.8,7.93,16.9,10.79,12.74,10.79,24.96,0,11.83-6.5,19.5Q80.795,1.3,69.615,1.3Zm49.4,0q-19.63,0-19.63-16.9a34.272,34.272,0,0,1,.91-8.06l.65-3.12h13.65l-1.04,5.59a18.075,18.075,0,0,0-.39,3.51q0,5.98,6.76,5.98,8.84,0,8.84-12.74,0-8.19-7.93-17.29-10.79-12.22-10.79-24.44,0-11.57,6.37-18.72,6.37-7.41,17.42-7.41,19.5,0,19.5,16.77a44.441,44.441,0,0,1-1.04,8.19l-.39,1.69h-13.65l.78-3.9a22.766,22.766,0,0,0,.39-3.9q0-5.85-6.5-5.85a7.073,7.073,0,0,0-6.3,3.25,15.346,15.346,0,0,0-2.145,8.58q0,7.8,7.93,16.9,10.79,12.74,10.79,24.96,0,11.83-6.5,19.5Q130.195,1.3,119.015,1.3Zm52.39,0q-9.88,0-15.47-4.745t-5.59-13.585a30.614,30.614,0,0,1,.78-6.63l10.27-48.1q2.08-10.01,8-15.275T184.275-92.3q9.88,0,15.47,4.745t5.59,13.585a31.148,31.148,0,0,1-.78,6.76l-10.27,48.1Q189.865,1.3,171.4,1.3Zm.78-13q5.85,0,7.67-8.06l10.53-49.79a14.448,14.448,0,0,0,.39-3.25q0-6.5-7.15-6.5-5.98,0-7.8,8.19l-10.53,49.79a15.246,15.246,0,0,0-.39,3.12Q164.9-11.7,172.185-11.7Z" transform="translate(93.3 206.335) rotate(-90)" fill="#fff" stroke="#121211" stroke-width="2" opacity="0.1"/></svg>