<svg xmlns="http://www.w3.org/2000/svg" width="95.6" height="520.009" viewBox="0 0 95.6 520.009"><path d="M-240.045,0H-254.6l19.37-91h14.56l-7.93,37.05h15.08l7.93-37.05h14.56L-210.4,0h-14.56l8.71-40.95h-15.08Zm65.39,1.3q-9.88,0-15.47-4.745t-5.59-13.585a30.614,30.614,0,0,1,.78-6.63l10.27-48.1q2.08-10.01,8-15.275t14.885-5.265q9.88,0,15.47,4.745t5.59,13.585a31.148,31.148,0,0,1-.78,6.76l-10.27,48.1Q-156.195,1.3-174.655,1.3Zm.78-13q5.85,0,7.67-8.06l10.53-49.79a14.448,14.448,0,0,0,.39-3.25q0-6.5-7.15-6.5-5.98,0-7.8,8.19l-10.53,49.79a15.246,15.246,0,0,0-.39,3.12Q-181.155-11.7-173.875-11.7ZM-119.925,0h-14.56l16.51-78h-14.95l2.86-13H-85.6l-2.86,13h-14.95Zm69.29,0h-24.05l19.37-91h20.8q18.46,0,18.46,14.95a30.1,30.1,0,0,1-.78,6.5l-.78,3.77q-1.69,8.06-4.68,12.22a13.383,13.383,0,0,1-8.32,5.33v.13q7.41,3.51,7.41,12.87a26.73,26.73,0,0,1-.78,6.24l-1.69,7.93q-2.21,10.79-8.255,15.925T-50.635,0Zm7.15-78-5.07,24.05h5.07q8.71,0,10.92-10.14l1.04-4.94A21.827,21.827,0,0,0-31-72.8q0-5.2-5.85-5.2Zm-7.8,37.05L-57.265-13h7.67q7.67,0,9.62-9.49l1.69-7.93a35.072,35.072,0,0,0,.65-4.81q0-3.12-1.755-4.42t-5.785-1.3ZM3.445,1.3q-9.75,0-15.21-4.68t-5.46-13.26a33.488,33.488,0,0,1,.78-7.02L-2.015-91h14.56L-2.405-21.06a15.246,15.246,0,0,0-.39,3.12q0,6.24,7.15,6.24,6.11,0,7.67-7.93L27.235-91h14.04L25.935-19.11Q21.645,1.3,3.445,1.3ZM45.825,0H33.085l19.37-91h20.02l-4.55,66.04L91.455-91H112L92.625,0H78.845l14.69-68.9L68.185,0h-11.7l4.03-68.9Zm82.55,0h-24.05l19.37-91h20.8q18.46,0,18.46,14.95a30.1,30.1,0,0,1-.78,6.5l-.78,3.77q-1.69,8.06-4.68,12.22a13.383,13.383,0,0,1-8.32,5.33v.13q7.41,3.51,7.41,12.87a26.729,26.729,0,0,1-.78,6.24l-1.69,7.93q-2.21,10.79-8.255,15.925T128.375,0Zm7.15-78-5.07,24.05h5.07q8.71,0,10.92-10.14l1.04-4.94A21.829,21.829,0,0,0,148-72.8q0-5.2-5.85-5.2Zm-7.8,37.05L121.745-13h7.67q7.67,0,9.62-9.49l1.69-7.93a35.071,35.071,0,0,0,.65-4.81q0-3.12-1.755-4.42t-5.785-1.3ZM196.365,0h-37.83L177.9-91h14.56l-16.64,78h23.27Zm47.19,0h-39l19.37-91h39l-2.86,13h-24.31l-5.07,24.05h19.24l-2.73,13h-19.24L221.975-13h24.31Z" transform="translate(93.3 264.169) rotate(-90)" fill="#fff" stroke="#121211" stroke-width="2" opacity="0.1"/></svg>