<svg xmlns="http://www.w3.org/2000/svg" width="95.6" height="424.345" viewBox="0 0 95.6 424.345"><path d="M-195.455,0h-14.69l19.37-91h20.93q8.58,0,13.13,4.225t4.55,11.895a30.614,30.614,0,0,1-.78,6.63l-1.95,9.23q-2.34,11.31-8.45,16.64t-17.03,5.33h-7.28Zm16.51-78-5.85,27.95h5.85q7.8,0,9.49-9.1l2.21-10.66a17.14,17.14,0,0,0,.39-3.25q0-4.94-5.2-4.94Zm44.33,79.3q-9.88,0-15.47-4.745t-5.59-13.585a30.614,30.614,0,0,1,.78-6.63l10.27-48.1q2.08-10.01,8-15.275t14.885-5.265q9.88,0,15.47,4.745t5.59,13.585a31.149,31.149,0,0,1-.78,6.76l-10.27,48.1Q-116.155,1.3-134.615,1.3Zm.78-13q5.85,0,7.67-8.06l10.53-49.79a14.448,14.448,0,0,0,.39-3.25q0-6.5-7.15-6.5-5.98,0-7.8,8.19l-10.53,49.79a15.246,15.246,0,0,0-.39,3.12Q-141.115-11.7-133.835-11.7Zm52.65,13q-9.75,0-15.21-4.68t-5.46-13.26a33.488,33.488,0,0,1,.78-7.02L-86.645-91h14.56l-14.95,69.94a15.246,15.246,0,0,0-.39,3.12q0,6.24,7.15,6.24,6.11,0,7.67-7.93L-57.395-91h14.04l-15.34,71.89Q-62.985,1.3-81.185,1.3Zm44.2-1.3h-14.56l19.37-91h20.93q8.58,0,13.065,3.965T6.305-75.4a36.152,36.152,0,0,1-.78,7.02l-.91,4.42Q2.925-55.64-.26-51.285A15.1,15.1,0,0,1-8.9-45.5v.13q6.63,2.21,6.63,11.31a29.962,29.962,0,0,1-.91,7.54l-3.38,15.99a49.46,49.46,0,0,0-1.3,8.19q0,.26.26,2.34h-14.17q-.26-3.12-.26-3.38a43.24,43.24,0,0,1,1.17-8.32l3.51-16.64a25.515,25.515,0,0,0,.78-5.46q0-2.99-1.5-4.095t-5.4-1.1h-5.2Zm16.64-78-5.59,26h4.29q8.84,0,11.18-10.14l1.56-7.02a16.09,16.09,0,0,0,.52-4.16q0-4.68-5.46-4.68ZM26.2,1.3q-9.88,0-15.47-4.745T5.135-17.03a30.614,30.614,0,0,1,.78-6.63l10.27-48.1q2.08-10.01,8-15.275T39.065-92.3q9.88,0,15.47,4.745t5.59,13.585a31.149,31.149,0,0,1-.78,6.76l-10.27,48.1Q44.655,1.3,26.2,1.3Zm.78-13q5.85,0,7.67-8.06l10.53-49.79a14.448,14.448,0,0,0,.39-3.25q0-6.5-7.15-6.5-5.98,0-7.8,8.19L20.085-21.32a15.246,15.246,0,0,0-.39,3.12Q19.7-11.7,26.975-11.7ZM84.435,0h-19.5l5.85-91h14.3L79.1-19.5,103.545-91h13.78Zm60.71,0h-39l19.37-91h39l-2.86,13h-24.31l-5.07,24.05h19.24l-2.73,13h-19.24L123.565-13h24.31Zm23.53,0h-14.56l19.37-91h20.93q8.58,0,13.065,3.965T211.965-75.4a36.151,36.151,0,0,1-.78,7.02l-.91,4.42q-1.69,8.32-4.875,12.675a15.1,15.1,0,0,1-8.645,5.785v.13q6.63,2.21,6.63,11.31a29.962,29.962,0,0,1-.91,7.54L199.1-10.53a49.46,49.46,0,0,0-1.3,8.19q0,.26.26,2.34h-14.17q-.26-3.12-.26-3.38a43.24,43.24,0,0,1,1.17-8.32l3.51-16.64a25.514,25.514,0,0,0,.78-5.46q0-2.99-1.495-4.095t-5.4-1.1h-5.2Zm16.64-78-5.59,26h4.29q8.84,0,11.18-10.14l1.56-7.02a16.09,16.09,0,0,0,.52-4.16q0-4.68-5.46-4.68Z" transform="translate(93.3 212.965) rotate(-90)" fill="#fff" stroke="#121211" stroke-width="2" opacity="0.1"/></svg>