<svg xmlns="http://www.w3.org/2000/svg" width="95.6" height="321.642" viewBox="0 0 95.6 321.642"><path d="M-143.195,1.3q-19.63,0-19.63-16.9a34.272,34.272,0,0,1,.91-8.06l.65-3.12h13.65l-1.04,5.59a18.076,18.076,0,0,0-.39,3.51q0,5.98,6.76,5.98,8.84,0,8.84-12.74,0-8.19-7.93-17.29-10.79-12.22-10.79-24.44,0-11.57,6.37-18.72,6.37-7.41,17.42-7.41,19.5,0,19.5,16.77a44.442,44.442,0,0,1-1.04,8.19l-.39,1.69h-13.65l.78-3.9a22.765,22.765,0,0,0,.39-3.9q0-5.85-6.5-5.85a7.073,7.073,0,0,0-6.3,3.25,15.346,15.346,0,0,0-2.145,8.58q0,7.8,7.93,16.9,10.79,12.74,10.79,24.96,0,11.83-6.5,19.5Q-132.015,1.3-143.195,1.3ZM-99.9,0H-114.6l19.37-91h20.93q8.58,0,13.13,4.225t4.55,11.895a30.614,30.614,0,0,1-.78,6.63l-1.95,9.23q-2.34,11.31-8.45,16.64t-17.03,5.33H-92.1Zm16.51-78-5.85,27.95h5.85q7.8,0,9.49-9.1l2.21-10.66a17.141,17.141,0,0,0,.39-3.25q0-4.94-5.2-4.94Zm59.54,78h-39l19.37-91h39l-2.86,13h-24.31l-5.07,24.05h19.24l-2.73,13h-19.24L-45.435-13h24.31ZM8.385,1.3Q-1.625,1.3-6.89-3.25t-5.265-13.13a32.4,32.4,0,0,1,.78-6.76L-.845-72.28q2.08-9.75,7.8-14.885T21.515-92.3q9.88,0,15.08,4.55t5.2,13a31.7,31.7,0,0,1-.78,6.89l-1.56,7.54H25.675l2.08-9.88a12.325,12.325,0,0,0,.39-2.99q0-6.11-6.89-6.11-5.85,0-7.67,7.67L2.665-20.8a11.868,11.868,0,0,0-.39,2.86q0,6.24,6.89,6.24,6.5,0,7.93-7.41l2.86-14.17H33.6l-2.99,14.56Q26.585,1.3,8.385,1.3ZM50.5,0H35.945l19.37-91h14.56Zm8.06,0,34.19-91h19.76l-4.55,91H93.4l1.3-17.81H78.585L72.345,0Zm40.17-74.49L83.005-30.16h12.48ZM153.855,0h-37.83l19.37-91h14.56l-16.64,78h23.27Z" transform="translate(93.3 157.817) rotate(-90)" fill="none" stroke="#121211" stroke-width="2" opacity="0.098"/></svg>