<svg xmlns="http://www.w3.org/2000/svg" width="320.4" height="33.66" viewBox="0 0 320.4 33.66"><path d="M3.16,0H-1.56L7.6-14.64,4.76-28H9.28L11-18.92,16.6-28h4.76L12.6-14.04,15.56,0H11.04L9.2-9.84Zm23.6.4a7.805,7.805,0,0,1-5.2-1.62,5.569,5.569,0,0,1-1.92-4.5,10.133,10.133,0,0,1,.24-2.12l3-13.88q1.44-6.68,8.04-6.68a7.856,7.856,0,0,1,5.18,1.58,5.524,5.524,0,0,1,1.9,4.5,10.3,10.3,0,0,1-.24,2.16L34.8-6.24Q33.36.4,26.76.4ZM27-3.64q2.6,0,3.2-2.92l3.04-14.28a3.181,3.181,0,0,0,.16-1.08q0-2.44-2.76-2.44-2.6,0-3.2,2.92L24.4-7.16a7.22,7.22,0,0,0-.12,1.08Q24.28-3.64,27-3.64ZM38.36.04a5.079,5.079,0,0,1-1.44-.2l.52-3.88a3.708,3.708,0,0,0,.72.08,3.426,3.426,0,0,0,2.46-.82,5.608,5.608,0,0,0,1.34-2.7L47.12-28H60.84L54.88,0H50.24l5.08-23.96H50.76L46.56-7a10.5,10.5,0,0,1-2.8,5.42A7.944,7.944,0,0,1,38.36.04ZM68.12.4a7.805,7.805,0,0,1-5.2-1.62A5.569,5.569,0,0,1,61-5.72a10.133,10.133,0,0,1,.24-2.12l3-13.88q1.44-6.68,8.04-6.68a7.856,7.856,0,0,1,5.18,1.58,5.524,5.524,0,0,1,1.9,4.5,10.3,10.3,0,0,1-.24,2.16L76.16-6.24Q74.72.4,68.12.4Zm.24-4.04q2.6,0,3.2-2.92L74.6-20.84a3.181,3.181,0,0,0,.16-1.08q0-2.44-2.76-2.44-2.6,0-3.2,2.92L65.76-7.16a7.219,7.219,0,0,0-.12,1.08Q65.64-3.64,68.36-3.64ZM88.44-28H102.2L97.08-4.04h2.4l-1.64,7.8H93.16L93.96,0H82.72l-.8,3.76H77.28l1.64-7.8h2.36a6.459,6.459,0,0,0,2-3.48ZM86.2-4.04h6.24l4.24-19.92H92.04L87.96-7.4A6.984,6.984,0,0,1,86.2-4.04ZM107.24,0h-4.68l5.96-28h4.68l-2.48,11.56h5.84L119.04-28h4.64L117.72,0h-4.68l2.64-12.4h-5.8Zm23.6,0h-7.92l5.96-28h4.68l-2.32,10.8h2.12a6.868,6.868,0,0,1,4.78,1.54,5.408,5.408,0,0,1,1.7,4.22,9.585,9.585,0,0,1-.24,2.08l-.52,2.44a9.228,9.228,0,0,1-2.72,5.32A8.41,8.41,0,0,1,130.84,0Zm14.44,0H140.6l5.96-28h4.68ZM130.4-13.16l-1.96,9.12h2.84a2.986,2.986,0,0,0,2.16-.7,4.453,4.453,0,0,0,1.04-2.38l.6-2.72a5.562,5.562,0,0,0,.12-1.08q0-2.24-2.56-2.24ZM163.96,0H150.48l5.96-28h13.48l-.88,4.04h-8.8l-1.6,7.52h7.04l-.84,4.04H157.8L156-4.04h8.8Zm16.88,0h-4.68l5.96-28h4.68l-2.48,11.56h5.84L192.64-28h4.64L191.32,0h-4.68l2.64-12.4h-5.8ZM195.2,0l11.32-28h6.16l-.56,28h-4.48l.24-5.44h-6.16L199.64,0Zm13.4-23.28L203.24-9.4h4.8ZM220.72,0h-4.68L222-28h15.16L231.2,0h-4.68l5.12-23.96H225.8Zm21.72-9.28L252.8-28h5.04L251.88,0h-4.12l3.88-18.48L241.4,0h-5l5.96-28h4.12ZM265.8,0h-4.64l5.08-23.96h-5.28L261.8-28h15.24l-.84,4.04h-5.32Zm26.44-28h4.92l-8.44,10.64L291.2,0h-4.56l-1.8-12.8-3.4,4.08L279.6,0h-4.56L281-28h4.56L283-16Zm8.92,18.72L311.52-28h5.04L310.6,0h-4.12l3.88-18.48L300.12,0h-5l5.96-28h4.12Z" transform="translate(2.914 29.15)" fill="none" stroke="#121211" stroke-width="1.5"/></svg>